<svg xmlns="http://www.w3.org/2000/svg" width="1600" height="900" viewBox="0 0 1600 900" fill="none">
  <rect width="1600" height="900" fill="url(#sky)"/>
  <rect y="690" width="1600" height="210" fill="#395059"/>
  <rect y="720" width="1600" height="180" fill="#4E7483"/>
  <rect x="860" y="66" width="360" height="450" fill="#D8CEC5"/>
  <rect x="1180" y="120" width="320" height="396" fill="#D1C7BE"/>
  <rect x="540" y="340" width="382" height="178" fill="#D5CCC4"/>
  <rect x="72" y="492" width="1236" height="26" fill="#E2DBD5"/>
  <rect x="84" y="518" width="1198" height="192" fill="#EFEAE6"/>
  <rect x="100" y="524" width="300" height="180" fill="#26201C"/>
  <rect x="416" y="524" width="316" height="180" fill="#2C2521"/>
  <rect x="770" y="544" width="272" height="160" fill="#171717"/>
  <rect x="1084" y="544" width="220" height="160" fill="#171717"/>
  <rect x="1316" y="528" width="200" height="176" fill="#1C1B1A"/>
  <rect x="614" y="420" width="268" height="104" fill="#8E7A67"/>
  <rect x="0" y="792" width="1600" height="108" fill="url(#water)"/>
  <rect x="0" y="812" width="1600" height="88" fill="#87A8C8" opacity=".68"/>
  <rect x="970" y="226" width="110" height="132" fill="#151515"/>
  <rect x="985" y="240" width="80" height="102" fill="#F6DCA8"/>
  <rect x="1260" y="238" width="34" height="314" fill="#5D7C5E"/>
  <circle cx="1268" cy="232" r="34" fill="#617D5F"/>
  <circle cx="1296" cy="266" r="42" fill="#6F8F68"/>
  <path d="M0 0h1600v900H0z" fill="url(#shade)"/>
  <defs>
    <linearGradient id="sky" x1="0" y1="0" x2="1600" y2="900" gradientUnits="userSpaceOnUse">
      <stop stop-color="#52526D"/>
      <stop offset=".4" stop-color="#C8CEF1"/>
      <stop offset="1" stop-color="#FBF3E5"/>
    </linearGradient>
    <linearGradient id="water" x1="0" y1="792" x2="1600" y2="900" gradientUnits="userSpaceOnUse">
      <stop stop-color="#1C3752"/>
      <stop offset="1" stop-color="#6C9FD5"/>
    </linearGradient>
    <linearGradient id="shade" x1="0" y1="0" x2="1600" y2="900" gradientUnits="userSpaceOnUse">
      <stop stop-color="rgba(7,16,23,0.12)"/>
      <stop offset=".48" stop-color="rgba(7,16,23,0.02)"/>
      <stop offset="1" stop-color="rgba(7,16,23,0.16)"/>
    </linearGradient>
  </defs>
</svg>
