<svg xmlns="http://www.w3.org/2000/svg" width="1600" height="900" viewBox="0 0 1600 900" fill="none">
  <rect width="1600" height="900" fill="url(#bg)"/>
  <rect y="640" width="1600" height="260" fill="#D7DBD7"/>
  <rect x="140" y="110" width="260" height="520" fill="#294755"/>
  <rect x="420" y="70" width="370" height="560" fill="#345B68"/>
  <rect x="820" y="130" width="260" height="500" fill="#406A73"/>
  <rect x="1100" y="94" width="300" height="536" fill="#2A4A56"/>
  <rect x="146" y="138" width="248" height="478" fill="url(#glass1)"/>
  <rect x="430" y="94" width="350" height="510" fill="url(#glass2)"/>
  <rect x="832" y="160" width="236" height="444" fill="url(#glass3)"/>
  <rect x="1114" y="126" width="272" height="480" fill="url(#glass4)"/>
  <rect x="430" y="326" width="350" height="12" fill="#A7C8CF" opacity=".58"/>
  <rect x="430" y="468" width="350" height="12" fill="#A7C8CF" opacity=".58"/>
  <rect x="146" y="330" width="248" height="10" fill="#A7C8CF" opacity=".44"/>
  <rect x="1114" y="292" width="272" height="10" fill="#A7C8CF" opacity=".44"/>
  <rect x="418" y="630" width="780" height="18" fill="#BCC7C0"/>
  <path d="M0 0h1600v900H0z" fill="url(#overlay)"/>
  <defs>
    <linearGradient id="bg" x1="0" y1="0" x2="1600" y2="900" gradientUnits="userSpaceOnUse">
      <stop stop-color="#F2E9D9"/>
      <stop offset=".48" stop-color="#D8E1E4"/>
      <stop offset="1" stop-color="#B9D0D6"/>
    </linearGradient>
    <linearGradient id="glass1" x1="146" y1="138" x2="394" y2="616" gradientUnits="userSpaceOnUse">
      <stop stop-color="#7EB1B8"/>
      <stop offset="1" stop-color="#244E5A"/>
    </linearGradient>
    <linearGradient id="glass2" x1="430" y1="94" x2="780" y2="604" gradientUnits="userSpaceOnUse">
      <stop stop-color="#9FD1DC"/>
      <stop offset="1" stop-color="#325E69"/>
    </linearGradient>
    <linearGradient id="glass3" x1="832" y1="160" x2="1068" y2="604" gradientUnits="userSpaceOnUse">
      <stop stop-color="#A9D7D6"/>
      <stop offset="1" stop-color="#456B72"/>
    </linearGradient>
    <linearGradient id="glass4" x1="1114" y1="126" x2="1386" y2="606" gradientUnits="userSpaceOnUse">
      <stop stop-color="#93C9D2"/>
      <stop offset="1" stop-color="#23414B"/>
    </linearGradient>
    <linearGradient id="overlay" x1="0" y1="0" x2="1600" y2="900" gradientUnits="userSpaceOnUse">
      <stop stop-color="rgba(12,28,34,0.08)"/>
      <stop offset="1" stop-color="rgba(12,28,34,0.18)"/>
    </linearGradient>
  </defs>
</svg>
